<svg width="200" height="199" viewBox="0 0 200 199" fill="none" xmlns="http://www.w3.org/2000/svg">
<path d="M87.8979 167.506C80.2892 173.397 73.516 180.64 64.7406 184.593C54.5937 189.162 42.4389 188.695 32.4188 183.858C22.3988 179.021 14.5855 170.012 10.676 159.594C6.46693 148.379 6.95669 134.933 14.0554 125.285C18.2185 119.629 24.4299 115.423 27.282 109.004C30.9812 100.678 28.0138 90.8859 23.6174 82.9056C19.221 74.9253 13.3726 67.5817 10.8518 58.8263C5.86768 41.5203 16.2767 21.8576 32.5542 14.1567C48.8347 6.45585 69.1312 9.92167 83.5505 20.7081C90.1998 25.6835 95.9618 32.1657 103.712 35.1562C120.764 41.7364 139.433 29.0831 157.646 30.6071C174.08 31.9814 188.176 45.9484 191.149 62.1712C192.236 68.1031 191.973 74.4153 189.487 79.9094C184.186 91.6292 170.709 96.7718 160.648 104.79C153.175 110.747 147.312 118.708 143.841 127.61C140.833 135.322 139.467 143.931 134.273 150.375C128.998 156.921 121.997 158.808 114.063 158.701C103.916 158.566 96.0107 161.225 87.8979 167.509V167.506Z" fill="#E1EDFF"/>
<path d="M152.699 176.609C151.764 177.65 150.446 178.356 148.941 178.483L137.246 179.483L74.3019 184.876C71.1648 185.143 68.4032 182.821 68.1369 179.677L55.1071 27.5522C54.8408 24.4151 57.1621 21.6535 60.2992 21.3872L134.938 14.9935C138.075 14.7272 140.837 17.0485 141.107 20.1856L154.133 172.314C154.273 173.946 153.713 175.475 152.699 176.605V176.609Z" fill="#201600"/>
<path d="M147.886 173.964L74.5781 180.241C73.3901 180.344 72.3422 179.463 72.2397 178.272L59.9268 34.4893C59.8244 33.298 60.7051 32.2534 61.8964 32.151L135.204 25.8733C136.396 25.7709 137.44 26.6516 137.543 27.843L149.856 171.625C149.958 172.813 149.077 173.861 147.886 173.964Z" fill="#EFEFEF"/>
<path d="M104.485 20.6125L85.7307 22.2171C85.0262 22.2773 84.5041 22.8972 84.5643 23.6016L84.6449 24.5438C84.7052 25.2482 85.3251 25.7704 86.0295 25.7101L104.784 24.1056C105.488 24.0453 106.01 23.4254 105.95 22.721L105.869 21.7789C105.809 21.0745 105.189 20.5523 104.485 20.6125Z" fill="#48443E"/>
<path d="M111.446 21.7661C111.528 22.7322 110.815 23.5787 109.849 23.6607C108.882 23.7426 108.036 23.0291 107.954 22.0631C107.872 21.097 108.585 20.2504 109.552 20.1685C110.518 20.0866 111.364 20.8 111.446 21.7661Z" fill="#48443E"/>
<path d="M92.1446 60.6504C88.5989 60.9578 85.0532 61.2653 84.1743 61.4286C82.2811 61.7017 81.1255 63.196 81.1946 64.998C81.26 66.7567 84.1132 99.6627 84.3534 101.428C84.6153 103.191 86.0738 104.437 87.8993 104.388C89.8761 104.325 96.3208 103.788 98.1585 103.629C94.6519 101.624 93.8248 97.3611 92.8304 89.4095C92.2469 84.6897 90.9584 68.0723 90.9201 67.3785L90.6129 62.8308L109.528 78.7476L109.997 84.1526L94.9403 71.539C95.1568 74.2866 95.4229 77.8577 95.706 81.1223C95.9797 84.2789 96.2741 87.1722 96.4937 88.6998C97.7662 97.3461 98.9421 101.361 103.599 102.569C105.091 102.941 106.337 102.985 108.499 102.798C110.271 102.644 122.681 101.568 124.447 101.328C126.34 101.055 127.517 99.5586 127.448 97.7566C127.361 95.9998 124.515 63.1803 124.295 61.3915C124.011 59.6298 122.555 58.4056 120.729 58.455C118.752 58.5175 112.322 58.9662 110.463 59.1274C113.969 61.1323 114.775 65.3972 115.793 73.3686C116.376 78.0884 117.663 94.6842 117.703 95.3996L118.008 99.9257L99.1578 84.0033L98.6892 78.5983L113.681 91.2175C113.464 88.4699 113.198 84.8988 112.915 81.6341C112.641 78.4776 112.347 75.5842 112.129 74.0783C110.855 65.4104 109.679 61.3954 105.022 60.1873C103.595 59.81 102.285 59.7712 100.122 59.9586L92.1446 60.6504Z" fill="#201600"/>
<g clip-path="url(#clip0_5290_143473)">
<path d="M171.579 106.889L138.896 105.176C125.859 104.493 114.738 114.507 114.055 127.543C113.372 140.579 123.385 151.7 136.422 152.384L169.104 154.096C182.141 154.78 193.261 144.766 193.944 131.73C194.628 118.694 184.615 107.573 171.579 106.889Z" fill="#4CAF50"/>
<path d="M169.295 150.465C180.326 151.043 189.736 142.569 190.314 131.539C190.892 120.508 182.419 111.097 171.388 110.519C160.358 109.941 150.947 118.415 150.369 129.445C149.791 140.476 158.264 149.886 169.295 150.465Z" fill="#E8F5E9"/>
</g>
<defs>
<clipPath id="clip0_5290_143473">
<rect width="80" height="47.273" fill="white" transform="translate(115.292 103.939) rotate(3)"/>
</clipPath>
</defs>
</svg>
