<svg width="200" height="199" viewBox="0 0 200 199" fill="none" xmlns="http://www.w3.org/2000/svg">
<g clip-path="url(#clip0_5290_143504)">
<path d="M72.707 143.329C65.7831 148.691 59.6196 155.282 51.6339 158.878C42.4004 163.036 31.3395 162.612 22.2213 158.21C13.1031 153.808 5.99315 145.61 2.43553 136.13C-1.39474 125.924 -0.949057 113.689 5.51076 104.909C9.29908 99.7623 14.9514 95.9346 17.5469 90.0935C20.9131 82.5168 18.2128 73.6058 14.2121 66.3437C10.2114 59.0817 4.88942 52.399 2.59545 44.4317C-1.94005 28.6833 7.53207 10.7903 22.3446 3.78259C37.1597 -3.22515 55.6294 -0.0712755 68.7509 9.74429C74.8017 14.2719 80.0451 20.1707 87.0974 22.892C102.615 28.8799 119.604 17.3655 136.178 18.7524C151.132 20.0029 163.96 32.7128 166.665 47.4755C167.654 52.8735 167.415 58.6176 165.153 63.6172C160.329 74.2822 148.065 78.9619 138.91 86.258C132.109 91.6796 126.774 98.9233 123.615 107.024C120.878 114.043 119.635 121.876 114.908 127.741C110.108 133.697 103.737 135.414 96.5171 135.317C87.2835 135.194 80.0897 137.614 72.707 143.332V143.329Z" fill="#E1EDFF"/>
<path d="M109.416 175.731C109.416 175.731 103.365 159.574 91.5202 154.548C79.6754 149.522 108.391 139.463 108.391 139.463C108.391 139.463 120.117 148.804 120.117 152.393C120.117 155.982 118.204 165.554 116.29 167.709C114.376 169.864 109.416 175.729 109.416 175.729V175.731Z" fill="#E57F6A"/>
<path d="M117.816 152.789C117.097 153.589 116.085 154.131 114.929 154.228L105.947 154.997L57.6061 159.139C55.1968 159.343 53.0759 157.561 52.8714 155.146L42.8644 38.3135C42.6599 35.9042 44.4427 33.7832 46.852 33.5787L104.175 28.6683C106.584 28.4638 108.705 30.2466 108.912 32.6559L118.917 149.491C119.024 150.744 118.594 151.919 117.816 152.786V152.789Z" fill="#201600"/>
<path d="M114.119 150.757L57.8185 155.579C56.9061 155.657 56.1013 154.981 56.0226 154.066L46.5662 43.6409C46.4876 42.726 47.164 41.9237 48.079 41.8451L104.38 37.0238C105.294 36.9451 106.097 37.6215 106.175 38.5365L115.632 148.962C115.71 149.874 115.034 150.679 114.119 150.757Z" fill="#EFEFEF"/>
<path d="M80.7864 32.9847L66.3831 34.217C65.8421 34.2633 65.4411 34.7393 65.4874 35.2803L65.5493 36.0039C65.5955 36.5449 66.0716 36.9459 66.6126 36.8996L81.0159 35.6674C81.5569 35.6211 81.958 35.145 81.9117 34.604L81.8498 33.8805C81.8035 33.3395 81.3274 32.9384 80.7864 32.9847Z" fill="#48443E"/>
<path d="M86.1326 33.8705C86.1955 34.6125 85.6476 35.2626 84.9057 35.3256C84.1637 35.3885 83.5136 34.8406 83.4506 34.0986C83.3877 33.3567 83.9357 32.7065 84.6776 32.6436C85.4195 32.5807 86.0697 33.1286 86.1326 33.8705Z" fill="#48443E"/>
<path d="M100.928 47.5233L18.6768 54.9219L26.4234 141.042L108.674 133.644L100.928 47.5233Z" fill="#4D59A1"/>
<path d="M64.3127 87.101L44.2435 88.9062L45.1588 99.0818L65.228 97.2766L64.3127 87.101Z" fill="#93B1E2"/>
<path d="M63.768 62.044L42.0015 64.002L43.5296 80.99L65.2961 79.0321L63.768 62.044Z" fill="#93B1E2"/>
<path d="M74.9762 71.0381L67.0619 71.75L67.6974 78.8157L75.6118 78.1038L74.9762 71.0381Z" fill="#5B7BBB"/>
<path d="M76.3246 86.0186L68.4103 86.7305L72.0081 126.728L79.9225 126.016L76.3246 86.0186Z" fill="#93B1E2"/>
<path d="M91.2453 71.286L82.7643 72.0488L83.2474 77.4199L91.7284 76.6571L91.2453 71.286Z" fill="#93B1E2"/>
<path d="M86.6109 49.9026L80.8168 50.4238L82.6094 70.352L88.4035 69.8308L86.6109 49.9026Z" fill="#93B1E2"/>
<path d="M52.3868 101.85L45.4621 102.473L48.3861 134.979L55.3108 134.356L52.3868 101.85Z" fill="#5B7BBB"/>
<path d="M36.2511 88.7712L26.4985 89.6484L27.3758 99.401L37.1284 98.5238L36.2511 88.7712Z" fill="#4D5B9D"/>
<path d="M104.02 81.8469L103.711 78.3942L81.6653 80.3788L78.8837 49.498L75.3523 49.8179L78.1313 80.6986L40.1117 84.1199L37.3327 53.2392L36.2028 53.3414L38.9817 84.2222L21.4558 85.8004L21.7678 89.2506L39.2911 87.6749L43.9551 139.461L45.085 139.359L40.4237 87.5727L78.4432 84.1488L82.0821 124.572L85.6135 124.255L83.3615 99.2234L105.407 97.2388L105.239 95.3696L83.1937 97.3542L81.9746 83.8315L104.02 81.8469Z" fill="white"/>
<path d="M107.534 120.971L81.9558 123.271L82.3161 127.277L107.895 124.976L107.534 120.971Z" fill="white"/>
<path d="M85.4875 122.952L81.9547 123.27L83.0945 135.941L86.6274 135.624L85.4875 122.952Z" fill="white"/>
<path d="M52.8399 80.2777C53.0654 79.5279 53.1545 78.7257 53.0811 77.8999C52.7691 74.4314 49.7018 71.87 46.2333 72.182C42.7648 72.494 40.2034 75.5613 40.5154 79.0298C40.6281 80.2777 41.0974 81.405 41.8105 82.3253L48.1655 93.6797L52.659 80.7916C52.7272 80.6238 52.7849 80.4508 52.8373 80.2777H52.8399Z" fill="#D24A43"/>
<path d="M48.0619 82.0758C50.0578 81.3792 51.1111 79.1965 50.4145 77.2006C49.7179 75.2047 47.5352 74.1515 45.5393 74.8481C43.5434 75.5447 42.4902 77.7274 43.1868 79.7232C43.8834 81.7191 46.066 82.7724 48.0619 82.0758Z" fill="#F6ED54"/>
<path opacity="0.18" d="M117.816 152.789C117.097 153.588 116.085 154.131 114.929 154.228L105.947 154.996C105.8 154.723 105.664 154.448 105.536 154.173C105.135 153.323 104.768 152.458 104.437 151.58C103.273 148.521 102.534 145.301 102.24 142.042C101.695 135.957 102.689 129.684 101.019 123.803C98.9081 116.366 92.9306 110.797 87.6768 105.129C82.7507 99.8176 77.6987 93.169 77.9451 85.5399C78.0238 82.9943 78.868 78.8442 82.3784 80.1419C85.2544 81.2037 87.4356 86.4549 88.9116 88.9088C95.416 99.7232 103.145 109.801 109.059 120.951C111.031 124.658 112.795 128.528 114.219 132.507C116.565 139.069 117.978 145.917 117.816 152.789Z" fill="#201600"/>
<path d="M159.026 184.367C158.431 187.07 155.888 188.843 153.468 190.185C142.753 196.144 130.387 199.099 118.135 198.614C117.21 198.574 116.298 198.349 115.482 197.911C112.709 196.417 113.354 194.078 113.49 191.928C113.964 184.338 107.678 177.21 109.264 169.778C109.964 166.508 112.161 163.538 112.016 160.198C111.854 156.522 108.962 153.654 107.048 150.514C100.486 139.749 105.292 124.913 99.123 113.918C96.1212 108.569 90.9067 104.883 86.8615 100.269C83.2829 96.1924 80.5983 91.3318 79.0515 86.133C78.535 84.4053 78.1444 82.5832 78.5166 80.8136C78.5953 80.4256 78.7107 80.0428 78.8732 79.6601C79.3005 78.6402 80.0713 77.7803 81.0885 77.3399C83.9383 76.1129 86.6281 78.6298 88.6101 80.8398C88.9771 81.2488 89.3468 81.6552 89.7165 82.0563C95.9062 88.8071 102.725 94.9759 110.063 100.46C111.607 101.617 113.804 100.487 113.77 98.5545C113.728 96.1111 113.799 93.5183 114.043 92.5456C114.137 92.1786 116.57 94.2681 117.915 95.1332C132.696 104.624 143.096 120.781 145.325 138.239C146.172 144.859 145.917 151.644 147.582 158.103C149.32 164.841 153.046 170.866 156.703 176.783C158.132 179.095 159.613 181.719 159.026 184.367Z" fill="#FF9981"/>
<path d="M82.187 86.9425C80.4646 84.9316 79.3005 82.5512 78.5193 80.8078C78.5979 80.4197 78.7133 80.037 78.8758 79.6542C79.3031 78.6344 80.0739 77.7745 81.0911 77.334C83.9409 76.1071 86.6307 78.6239 88.6127 80.834C88.9798 81.2429 89.3494 81.6493 89.7191 82.0504C90.0494 83.0519 90.3483 83.938 90.5659 84.5463C91.4966 87.126 85.063 90.2904 82.1922 86.9399L82.187 86.9425Z" fill="#FCB1A2"/>
<path d="M85.2255 98.7983C85.0604 98.7983 84.8952 98.7223 84.7903 98.5781C75.8268 86.2798 78.2624 79.7334 78.3725 79.4608C78.4826 79.1855 78.7946 79.0492 79.0725 79.1593C79.3477 79.2694 79.4841 79.5788 79.3766 79.8567C79.3451 79.9379 77.1114 86.2116 85.6634 97.9462C85.839 98.1874 85.7866 98.523 85.5454 98.6987C85.4484 98.7694 85.3383 98.8009 85.2282 98.8009L85.2255 98.7983Z" fill="#C15E4D"/>
<path d="M118.935 110.099C118.762 110.099 118.592 110.015 118.487 109.861C115.215 104.969 110.134 101.144 110.084 101.104C109.846 100.926 109.796 100.588 109.974 100.352C110.152 100.113 110.491 100.063 110.727 100.242C110.942 100.402 116.009 104.216 119.381 109.26C119.546 109.507 119.48 109.842 119.231 110.007C119.14 110.068 119.035 110.099 118.932 110.099H118.935Z" fill="#C15E4D"/>
<path d="M109.437 154.545C109.293 154.545 109.148 154.487 109.041 154.372C103.923 148.85 103.132 140.498 103.1 140.144C103.074 139.848 103.292 139.585 103.588 139.559C103.881 139.53 104.146 139.751 104.172 140.047C104.18 140.131 104.967 148.389 109.83 153.638C110.032 153.855 110.019 154.196 109.801 154.398C109.699 154.495 109.565 154.542 109.434 154.542L109.437 154.545Z" fill="#C15E4D"/>
<path d="M152.021 169.413C151.863 169.413 151.706 169.345 151.599 169.211C148.843 165.761 146.688 159.233 145.972 152.176C145.595 148.445 145.147 143.621 144.822 140.1C144.617 137.893 144.441 135.984 144.415 135.814C144.371 135.52 144.57 135.245 144.863 135.198C145.152 135.153 145.43 135.345 145.48 135.638C145.506 135.801 145.626 137.093 145.896 140.001C146.222 143.519 146.67 148.34 147.047 152.066C147.745 158.927 149.811 165.24 152.445 168.538C152.632 168.771 152.592 169.109 152.361 169.295C152.262 169.374 152.144 169.413 152.026 169.413H152.021Z" fill="#C15E4D"/>
<path d="M127.322 165.021C127.285 165.021 127.251 165.019 127.214 165.011C119.596 163.469 115.417 158.496 114.966 157.935C114.78 157.704 114.816 157.364 115.047 157.177C115.28 156.991 115.619 157.028 115.805 157.259C115.975 157.471 120.057 162.463 127.427 163.954C127.718 164.015 127.906 164.298 127.846 164.589C127.794 164.843 127.571 165.021 127.319 165.021H127.322Z" fill="#C15E4D"/>
<path d="M160.777 88.2698L128.114 63.1567C127.778 64.769 127.497 66.7903 127.497 69.0555C127.497 74.4771 130.814 79.71 130.848 79.7624L125.689 83.0998C125.513 82.8272 121.355 76.328 121.355 69.0581C121.355 61.7882 123.536 56.98 123.628 56.7677L125.201 53.1681L158.271 78.5931C159.419 75.1404 159.98 71.5513 159.912 68.0435C159.789 61.7803 157.783 55.6875 154.11 50.4258L159.149 46.9102C163.519 53.176 165.908 60.4406 166.055 67.9229C166.167 73.6093 164.901 79.4478 162.4 84.8039L160.78 88.2724L160.777 88.2698Z" fill="black"/>
</g>
<defs>
<clipPath id="clip0_5290_143504">
<rect width="200" height="198.666" fill="white"/>
</clipPath>
</defs>
</svg>
