<svg width="200" height="201" viewBox="0 0 200 201" fill="none" xmlns="http://www.w3.org/2000/svg">
<g clip-path="url(#clip0_4672_139291)">
<path d="M173.702 135.401C173.702 135.401 213.517 73.37 195.171 33.706C176.82 -5.96298 133.029 -6.19003 117.892 10.385C108.638 20.5167 111.338 37.4449 89.4292 43.9891C76.028 47.9954 66.2747 41.5722 46.2989 34.6092C26.3231 27.6462 3.13326 42.7882 0.282464 66.962C-2.91649 94.0976 21.782 108.281 35.3397 118.049C48.8974 127.818 42.0303 144.019 47.6512 159.187C53.272 174.359 143.927 190.465 173.697 135.396L173.702 135.401Z" fill="#E3F1FA"/>
<path d="M193.4 66.9627C193.4 66.9627 196.428 31.9055 173.702 14.4727C154.155 -0.51796 134.618 6.75284 128.468 13.3374C122.317 19.922 129.048 27.874 146.037 26.7387C163.025 25.6034 188.789 37.3346 193.405 66.9627H193.4Z" fill="white"/>
<path d="M46.1072 127.317C65.8144 127.317 81.7902 111.341 81.7902 91.6341C81.7902 71.927 65.8144 55.9512 46.1072 55.9512C26.4001 55.9512 10.4243 71.927 10.4243 91.6341C10.4243 111.341 26.4001 127.317 46.1072 127.317Z" fill="#00458E"/>
<path d="M46.1075 122.544C63.1785 122.544 77.0172 108.705 77.0172 91.6343C77.0172 74.5634 63.1785 60.7246 46.1075 60.7246C29.0365 60.7246 15.1978 74.5634 15.1978 91.6343C15.1978 108.705 29.0365 122.544 46.1075 122.544Z" fill="#E6FFFF"/>
<path opacity="0.57" d="M57.1622 92.8353C61.4712 86.3214 61.9304 74.5801 59.7658 68.3285C55.815 66.0075 51.2285 64.6553 46.3191 64.62C31.3991 64.5039 19.2088 76.5025 19.0927 91.4225C19.0574 95.7366 20.0413 99.8185 21.8123 103.451C22.0242 103.482 22.2463 103.461 22.443 103.542C32.3124 107.654 49.0589 105.086 57.1622 92.8353Z" fill="#FFFAFF"/>
<path d="M45.3766 64.0603L45.3311 69.8475C45.327 70.3686 45.7462 70.7943 46.2672 70.7984C46.7883 70.8025 47.2141 70.3834 47.2182 69.8623L47.2636 64.0751C47.2677 63.554 46.8486 63.1283 46.3275 63.1242C45.8064 63.1201 45.3807 63.5392 45.3766 64.0603Z" fill="#00458E"/>
<path d="M44.9884 113.406L44.943 119.193C44.9389 119.714 45.358 120.14 45.8791 120.144C46.4001 120.148 46.8259 119.729 46.83 119.208L46.8754 113.421C46.8795 112.9 46.4604 112.474 45.9393 112.47C45.4182 112.466 44.9925 112.885 44.9884 113.406Z" fill="#00458E"/>
<path d="M67.8949 90.8626C67.3738 90.8585 66.948 91.2776 66.9439 91.7987C66.9398 92.3198 67.3589 92.7455 67.88 92.7496L73.6672 92.7951C74.1883 92.7991 74.6141 92.38 74.6182 91.8589C74.6222 91.3379 74.2031 90.9121 73.682 90.908L67.8949 90.8626Z" fill="#00458E"/>
<path d="M18.5492 90.4739C18.0281 90.4698 17.6023 90.8889 17.5982 91.41C17.5941 91.9311 18.0132 92.3568 18.5343 92.3609L24.3215 92.4064C24.8426 92.4105 25.2684 91.9914 25.2725 91.4703C25.2765 90.9492 24.8574 90.5235 24.3364 90.5194L18.5492 90.4739Z" fill="#00458E"/>
<path d="M58.9587 70.7152C59.4798 70.7152 59.9022 70.2928 59.9022 69.7717C59.9022 69.2506 59.4798 68.8281 58.9587 68.8281C58.4376 68.8281 58.0151 69.2506 58.0151 69.7717C58.0151 70.2928 58.4376 70.7152 58.9587 70.7152Z" fill="#00458E"/>
<path d="M33.256 114.442C33.7771 114.442 34.1996 114.019 34.1996 113.498C34.1996 112.977 33.7771 112.555 33.256 112.555C32.7349 112.555 32.3125 112.977 32.3125 113.498C32.3125 114.019 32.7349 114.442 33.256 114.442Z" fill="#00458E"/>
<path d="M68.1667 80.0707C68.6878 80.0707 69.1102 79.6482 69.1102 79.1271C69.1102 78.606 68.6878 78.1836 68.1667 78.1836C67.6456 78.1836 67.2231 78.606 67.2231 79.1271C67.2231 79.6482 67.6456 80.0707 68.1667 80.0707Z" fill="#00458E"/>
<path d="M24.0475 105.086C24.5686 105.086 24.9911 104.664 24.9911 104.143C24.9911 103.622 24.5686 103.199 24.0475 103.199C23.5264 103.199 23.104 103.622 23.104 104.143C23.104 104.664 23.5264 105.086 24.0475 105.086Z" fill="#00458E"/>
<path d="M67.9699 105.43C68.491 105.43 68.9134 105.008 68.9134 104.487C68.9134 103.965 68.491 103.543 67.9699 103.543C67.4488 103.543 67.0264 103.965 67.0264 104.487C67.0264 105.008 67.4488 105.43 67.9699 105.43Z" fill="#00458E"/>
<path d="M24.2443 79.7269C24.7654 79.7269 25.1879 79.3045 25.1879 78.7834C25.1879 78.2623 24.7654 77.8398 24.2443 77.8398C23.7232 77.8398 23.3008 78.2623 23.3008 78.7834C23.3008 79.3045 23.7232 79.7269 24.2443 79.7269Z" fill="#00458E"/>
<path d="M58.6154 114.637C59.1365 114.637 59.559 114.215 59.559 113.694C59.559 113.172 59.1365 112.75 58.6154 112.75C58.0943 112.75 57.6719 113.172 57.6719 113.694C57.6719 114.215 58.0943 114.637 58.6154 114.637Z" fill="#00458E"/>
<path d="M33.5988 70.5179C34.1199 70.5179 34.5424 70.0955 34.5424 69.5744C34.5424 69.0533 34.1199 68.6309 33.5988 68.6309C33.0777 68.6309 32.6553 69.0533 32.6553 69.5744C32.6553 70.0955 33.0777 70.5179 33.5988 70.5179Z" fill="#00458E"/>
<path d="M55.6991 84.5302C58.5246 83.4303 71.709 77.7539 71.709 77.7539L71.7594 77.8447L71.8553 78.0213L71.9057 78.1121C71.9057 78.1121 59.9072 85.9884 57.4297 87.7393C54.9523 89.4901 46.1678 92.2249 46.1678 92.2249L46.0064 91.9272L45.9105 91.7506L45.749 91.4529C45.749 91.4529 52.8735 85.6352 55.6991 84.5302Z" fill="#FFBC00"/>
<path d="M37.1413 93.5528C34.9767 93.2197 24.7139 92.1198 24.7139 92.1198V92.0189V91.817V91.7161C24.7139 91.7161 34.9364 90.3134 37.0909 89.9098C39.2403 89.5112 45.7391 91.1611 45.7391 91.1611V91.4992L45.7492 91.701V92.0391C45.7492 92.0391 39.311 93.8858 37.1464 93.5528H37.1413Z" fill="#FFBC00"/>
<path d="M46.1073 93.5222C47.1495 93.5222 47.9944 92.6773 47.9944 91.6351C47.9944 90.5929 47.1495 89.748 46.1073 89.748C45.0651 89.748 44.2202 90.5929 44.2202 91.6351C44.2202 92.6773 45.0651 93.5222 46.1073 93.5222Z" fill="#00458E"/>
<path d="M154.261 187.34H92.8152C88.4658 187.34 81.7097 184.07 82.2142 179.721L100.984 49.0837C101.489 44.7343 105.424 41.2074 109.774 41.2074L167.461 38.957C174.474 38.957 178.687 44.7293 178.183 49.0786L163.056 179.459C162.551 183.808 158.616 187.335 154.266 187.335L154.261 187.34Z" fill="#144182"/>
<path d="M149.73 185.054H88.2841C83.9348 185.054 80.8166 181.527 81.3211 177.178L96.448 46.7982C96.9526 42.4488 100.888 38.9219 105.238 38.9219H166.684C171.033 38.9219 174.151 42.4488 173.647 46.7982L158.52 177.178C158.015 181.527 154.08 185.054 149.73 185.054Z" fill="#2099FF"/>
<path d="M149.715 182.319H88.9299C85.62 182.319 83.2485 179.635 83.632 176.325L98.6126 47.2013C98.996 43.8913 101.993 41.207 105.303 41.207H166.088C169.398 41.207 171.77 43.8913 171.386 47.2013L156.406 176.325C156.022 179.635 153.025 182.319 149.715 182.319Z" fill="#00458E"/>
<path d="M124.845 179.071H112.175C110.707 179.071 109.647 177.87 109.819 176.402C109.991 174.933 111.328 173.732 112.796 173.732H125.466C126.934 173.732 127.993 174.933 127.822 176.402C127.65 177.87 126.313 179.071 124.845 179.071Z" fill="#2099FF"/>
<path d="M108.049 47.3744C108.903 46.5692 109.013 45.3004 108.296 44.5404C107.579 43.7804 106.305 43.817 105.452 44.6222C104.599 45.4273 104.489 46.6962 105.206 47.4562C105.923 48.2162 107.196 48.1796 108.049 47.3744Z" fill="#2099FF"/>
<path d="M112.901 46.8216C113.414 46.3377 113.479 45.5742 113.047 45.1161C112.615 44.6581 111.849 44.6791 111.336 45.1629C110.823 45.6468 110.758 46.4104 111.19 46.8684C111.623 47.3264 112.389 47.3055 112.901 46.8216Z" fill="#2099FF"/>
<path d="M153.822 170.69H87.0176L100.863 51.3301H167.673L153.822 170.69Z" fill="white"/>
<path d="M158.424 69.7454H105.899C104.284 69.7454 103.129 68.4386 103.315 66.8239L104.375 57.6812C104.561 56.0666 106.02 54.7598 107.634 54.7598H160.16C161.774 54.7598 162.93 56.0666 162.743 57.6812L161.683 66.8239C161.497 68.4386 160.039 69.7454 158.424 69.7454Z" fill="#E6F2FF"/>
<path d="M113.029 86.175H101.07L102.458 74.2168H114.416L113.029 86.175Z" fill="#E6F2FF"/>
<path d="M128.499 86.175H116.541L117.928 74.2168H129.886L128.499 86.175Z" fill="#00458E"/>
<path d="M143.968 86.175H132.01L133.398 74.2168H145.356L143.968 86.175Z" fill="#E6F2FF"/>
<path d="M159.439 86.175H147.48L148.868 74.2168H160.826L159.439 86.175Z" fill="#E6F2FF"/>
<path d="M111.252 101.464H99.2988L100.686 89.5059H112.64L111.252 101.464Z" fill="#E6F2FF"/>
<path d="M126.722 101.464H114.769L116.157 89.5059H128.11L126.722 101.464Z" fill="#E6F2FF"/>
<path d="M142.192 101.464H130.239L131.626 89.5059H143.58L142.192 101.464Z" fill="#E6F2FF"/>
<path d="M157.662 101.464H145.709L147.097 89.5059H159.05L157.662 101.464Z" fill="#E6F2FF"/>
<path d="M109.481 116.752H97.5229L98.9105 104.799H110.864L109.481 116.752Z" fill="#E6F2FF"/>
<path d="M124.951 116.752H112.993L114.381 104.799H126.339L124.951 116.752Z" fill="#E6F2FF"/>
<path d="M140.421 116.752H128.463L129.85 104.799H141.809L140.421 116.752Z" fill="#E6F2FF"/>
<path d="M155.891 116.752H143.933L145.321 104.799H157.279L155.891 116.752Z" fill="#E6F2FF"/>
<path d="M107.705 132.041H95.752L97.1345 120.088H109.093L107.705 132.041Z" fill="#E6F2FF"/>
<path d="M123.175 132.041H111.222L112.61 120.088H124.563L123.175 132.041Z" fill="#E6F2FF"/>
<path d="M138.645 132.041H126.692L128.079 120.088H140.033L138.645 132.041Z" fill="#E6F2FF"/>
<path d="M154.115 132.041H142.162L143.55 120.088H155.503L154.115 132.041Z" fill="#E6F2FF"/>
<path d="M67.2888 110.834C67.2888 110.834 73.5707 101.691 74.5647 99.5164C75.5587 97.3417 75.6697 95.4899 74.1055 94.3597C72.5414 93.2295 69.6704 92.3414 67.1274 95.9239C64.5844 99.5063 59.8869 110.511 59.6951 113.952C59.5034 117.393 75.0693 127.817 76.4518 128.494C77.9756 128.095 78.6214 125.819 78.6214 125.819C78.6214 125.819 68.5704 113.059 67.2838 110.834H67.2888Z" fill="#FF9900"/>
<path d="M72.4405 186.472C72.4405 186.472 72.7583 188.278 71.724 191.003C70.6896 193.728 70.6341 194.586 71.724 195.191C72.8138 195.797 73.5858 195.963 76.6284 195.191C79.6658 194.419 83.0515 192.724 83.0515 192.724C83.0515 192.724 79.7567 190.63 78.9494 189.742C78.1421 188.854 76.4568 185.67 76.482 185.211C76.5073 184.752 72.4405 186.472 72.4405 186.472Z" fill="#F79E77"/>
<path d="M80.7051 191.15C79.484 191.968 78.3134 192.856 76.7493 192.634C75.4929 192.321 75.0186 191.064 74.2365 190.121C73.6967 189.687 72.854 189.551 72.1275 189.768C72.0265 190.156 71.8954 190.565 71.7288 191.004C70.6945 193.728 70.639 194.586 71.7288 195.192C72.8187 195.792 73.5907 195.964 76.6332 195.192C79.6707 194.42 83.0564 192.724 83.0564 192.724C83.0564 192.724 81.8454 191.957 80.7101 191.15H80.7051Z" fill="#0C2C51"/>
<path d="M109.309 92.397L113.114 94.0369C114.375 92.4727 115.324 91.292 115.944 91.1659C117.554 91.3828 118.245 90.7017 118.679 90.1517C119.108 89.6017 118.573 89.2889 118.644 89.077C119.088 88.421 118.336 88.1637 118.457 88.0123C118.926 87.4674 118.835 87.1697 118.558 87.0234C118.275 86.872 117.801 86.7358 117.887 86.4633C117.972 86.1909 119.133 85.4592 120.137 84.9799C121.146 84.5056 122.251 83.7387 121.636 83.335C121.02 82.9314 115.303 85.6812 114.234 86.8518C113.164 88.0224 113.441 89.2738 112.099 90.5604C111.615 91.0296 110.535 91.7209 109.314 92.4021L109.309 92.397Z" fill="#FFB797"/>
<path d="M76.4166 185.917C76.4166 185.917 76.6841 189.626 75.4983 192.643C74.3126 195.66 74.6557 197.002 76.8001 197.613C78.9445 198.224 80.1252 196.77 82.9155 196.846C85.7057 196.922 89.4143 196.619 90.3679 194.056C91.3215 191.493 86.8612 192.638 84.1617 191.836C81.4623 191.033 82.6632 186.296 82.6632 186.296L76.4166 185.912V185.917Z" fill="#FFAE83"/>
<path d="M84.2421 191.786C84 192.598 86.1999 193.456 85.554 193.89C83.1977 195.621 80.3671 192.634 77.6979 191.69C77.153 191.418 76.5071 191.408 75.8714 191.539C75.7705 191.912 75.6494 192.286 75.5081 192.644C74.3224 195.666 74.6655 197.003 76.8099 197.614C78.9492 198.224 80.135 196.771 82.9252 196.847C85.7155 196.923 90.9932 196.393 91.9519 193.835C92.8955 191.302 86.9567 192.538 84.2522 191.786H84.2421Z" fill="#0F3163"/>
<path d="M91.6141 192.613C91.5989 192.674 91.5838 192.734 91.5586 192.8C90.6049 195.363 85.3221 195.888 82.5319 195.812C79.7416 195.737 78.5559 197.19 76.4165 196.579C75.6799 196.367 75.1652 196.07 74.8423 195.651C74.9331 196.67 75.5689 197.265 76.8 197.619C78.9394 198.229 80.1251 196.776 82.9153 196.852C85.7056 196.927 90.9834 196.398 91.942 193.839C92.159 193.254 92.0076 192.871 91.6141 192.613Z" fill="#0C2C51"/>
<path d="M80.9274 138.362C79.4641 137.671 78.4853 136.641 77.8445 135.506C76.5831 133.251 76.684 130.561 77.1381 129.189C77.8243 127.125 80.5792 121.923 80.5792 121.923L73.813 120.672C73.813 120.672 70.7755 125.919 69.2265 130.047C67.6775 134.174 68.9389 138.534 69.6856 141.803C70.4324 145.073 72.3245 154.417 71.5223 157.919C70.72 161.416 69.2265 166.749 69.6301 170.821C70.0338 174.893 72.0369 184.585 71.9814 186.76C72.6575 187.063 73.3236 187.164 73.9341 187.154C75.7606 187.108 77.1431 186.018 77.1431 186.018C77.1431 186.018 77.6023 169.332 79.3229 161.991C81.0434 154.649 82.764 141.001 80.9274 138.367V138.362Z" fill="#144182"/>
<path d="M80.9275 138.362C79.4642 137.671 78.4854 136.642 77.8446 135.507C74.9787 134.154 76.9767 128.897 76.7446 125.652C75.6094 128.786 71.2751 134.427 77.1987 141.46C79.3078 143.418 77.2492 158.792 75.4429 165.725C73.8232 171.603 74.5296 181.044 74.8172 187.048C76.1846 186.765 77.1382 186.014 77.1382 186.014C77.1382 186.014 77.5974 169.328 79.3179 161.986C81.0385 154.645 82.7591 140.996 80.9224 138.362H80.9275Z" fill="#0F3163"/>
<path d="M91.7501 121.848C91.7501 121.848 93.7381 129.416 93.1276 137.52C92.5171 145.623 87.0879 159.231 86.4774 162.213C85.8669 165.195 85.0243 173.768 84.2624 177.627C83.5005 181.487 83.117 185.075 83.5358 186.069C81.7395 187.981 76.9613 187.749 75.8916 186.069C76.2751 178.193 76.0834 171.426 77.5718 166.113C79.0603 160.8 78.147 159.423 78.7576 156.098C79.3681 152.773 79.9786 142.489 80.2864 141.263C80.5942 140.037 77.5315 139.427 76.4265 137.439C75.3164 135.451 73.0257 130.673 79.3681 120.924C86.1343 120.697 91.7552 121.843 91.7552 121.843L91.7501 121.848Z" fill="#144182"/>
<path d="M91.7504 121.848C91.7504 121.848 86.1295 120.703 79.3633 120.93C79.2371 121.127 79.1161 121.314 79 121.505C84.5805 121.576 88.8542 122.449 88.8542 122.449C88.8542 122.449 90.8422 130.017 90.2316 138.121C89.6211 146.224 85.2869 159.61 84.6713 162.592C84.0608 165.574 83.8186 173.758 83.0517 177.613C82.3907 180.938 82.2696 185.076 82.5219 186.791C82.9104 186.599 83.2585 186.362 83.531 186.07C83.1122 185.076 83.4906 181.483 84.2576 177.628C85.0245 173.773 85.8621 165.196 86.4726 162.214C87.0832 159.232 92.5123 145.624 93.1228 137.52C93.7333 129.417 91.7453 121.848 91.7453 121.848H91.7504Z" fill="#164E91"/>
<path d="M88.2686 76.1238C88.2686 76.1238 88.8438 82.9304 88.0769 85.0294C87.3099 87.1284 86.548 88.6623 86.1292 89.0811C85.7104 89.4999 83.6871 88.738 83.2835 89.0811C82.8798 89.4242 82.9202 93.3649 82.9202 93.3649L77.2993 93.1378C77.2993 93.1378 77.9502 86.0285 78.4447 84.0758C78.9392 82.1231 87.6984 75.9725 88.2686 76.1238Z" fill="#FFAE83"/>
<path d="M74.9631 93.0015C74.9631 93.0015 79.3226 90.8217 82.8747 92.5423C86.4269 94.2629 91.9923 101.488 92.85 102.866C93.7078 104.243 94.283 107.336 92.85 110.147C91.417 112.957 91.9317 121.212 92.6785 122.65C86.659 124.426 77.3094 123.28 73.0105 121.388C75.4172 117.892 76.6787 116.57 74.9581 112.73C73.2375 108.89 71.1738 97.9916 74.9581 93.0015H74.9631Z" fill="#FFAA00"/>
<path d="M90.1507 110.678C91.5837 107.867 91.0085 104.769 90.1507 103.397C89.293 102.019 83.7276 94.7939 80.1755 93.0733C78.9494 92.478 77.6274 92.3569 76.4215 92.4426C75.5385 92.7252 74.9683 93.0027 74.9683 93.0027C71.1841 97.9929 73.2478 108.886 74.9683 112.731C76.6889 116.571 75.4275 117.893 73.0207 121.39C76.6385 122.984 83.8336 124.044 89.6058 123.287C89.732 123.251 89.8581 123.221 89.9792 123.186C89.2324 121.753 88.7178 113.493 90.1507 110.683V110.678Z" fill="#FF9900"/>
<path d="M96.9269 101.316C96.9269 101.316 87.8548 94.9387 85.6852 93.9195C83.5155 92.9003 81.6688 92.7741 80.5235 94.3232C79.3781 95.8722 78.4598 98.7381 82.0119 101.321C85.5691 103.9 96.5182 108.718 99.9594 108.951C103.4 109.178 113.991 93.7227 114.678 92.3503C114.294 90.8215 112.024 90.1504 112.024 90.1504C112.024 90.1504 99.1571 100.065 96.9168 101.327L96.9269 101.316Z" fill="#FFBC00"/>
<path d="M82.0171 101.318C81.896 101.232 81.7951 101.146 81.6841 101.061C81.79 101.146 81.901 101.232 82.0171 101.318Z" fill="#FF69A6"/>
<path d="M80.3068 95.8181C81.4522 94.2691 83.3039 94.4003 85.4685 95.4145C87.6331 96.4287 96.3621 102.135 96.3621 102.135C98.5973 100.874 112.034 90.1367 112.034 90.1367C112.034 90.1367 99.1675 100.051 96.9272 101.313C96.9272 101.313 87.8551 94.9351 85.6855 93.9159C83.5159 92.8967 81.6691 92.7706 80.5238 94.3196C79.9889 95.0461 79.4995 96.0553 79.4995 97.1956C79.661 96.7264 79.9587 96.2823 80.3018 95.8181H80.3068Z" fill="#FFD815"/>
<path d="M87.8497 72.9151C85.2512 70.3166 80.4326 69.3226 80.4326 69.3226C76.3456 67.935 73.1668 71.7697 72.2535 75.2109C71.3352 78.652 71.7893 82.6532 70.3816 87.1741C69.6702 89.3791 59.488 105.147 72.8338 116.565C76.2245 118.24 78.823 118.977 82.4912 116.151C78.6262 106.963 79.8473 98.1485 80.6293 95.5045C81.4114 92.8606 82.9302 92.8556 84.353 93.3803C84.4186 93.4055 84.4792 93.4308 84.5498 93.456C84.4186 93.1987 84.2471 92.901 84.0452 92.573C83.3288 90.4387 84.0049 86.0187 85.4681 84.4545C87.1887 82.6179 87.991 79.6359 88.2786 77.4562C88.6822 80.0345 87.7639 81.6441 87.1332 82.5574C89.6005 80.6652 90.4583 75.5035 87.8598 72.905L87.8497 72.9151Z" fill="#144182"/>
<path d="M71.4767 107.099C69.968 96.549 74.1912 85.7008 78.1067 75.7558C79.2773 72.7082 82.6427 71.3005 86.0637 71.5376C83.5005 69.9583 80.4277 69.3226 80.4277 69.3226C76.3407 67.935 73.1619 71.7697 72.2487 75.2109C71.3303 78.652 71.7845 82.6532 70.3767 87.1741C69.6653 89.3791 59.4831 105.147 72.8289 116.565C75.5737 117.922 77.7938 118.659 80.4832 117.403C79.3378 117.196 77.9957 116.449 77.7081 116.217C74.6958 114.108 72.0771 110.717 71.4716 107.099H71.4767Z" fill="#0F3163"/>
</g>
<defs>
<clipPath id="clip0_4672_139291">
<rect width="200" height="200.817" fill="white"/>
</clipPath>
</defs>
</svg>
